<svg width="20" height="20" viewBox="0 0 20 20" fill="none" xmlns="http://www.w3.org/2000/svg">
<path d="M19.9599 2.34552C19.9449 2.27326 19.9114 2.20613 19.8627 2.15064C19.814 2.09516 19.7518 2.05321 19.6822 2.02888C19.4199 1.97646 19.1484 1.99565 18.8961 2.08443C18.8961 2.08443 1.35883 8.38108 0.358925 9.08101C0.142278 9.231 0.0811728 9.3171 0.0339549 9.41987C-0.138252 9.91705 0.400588 10.1365 0.400588 10.1365L4.91684 11.6058C4.99178 11.623 5.06966 11.623 5.1446 11.6058C6.17228 10.9336 15.4825 5.06471 16.0186 4.86751C16.1047 4.84251 16.1658 4.86751 16.1491 4.93139C15.9353 5.6841 7.84991 12.8779 7.84991 12.8779C7.82948 12.9032 7.81265 12.9313 7.79991 12.9612L7.36106 17.4275C7.36106 17.4275 7.18608 18.7996 8.55818 17.4275C9.52475 16.4609 10.4636 15.6499 10.9302 15.2554C12.4828 16.3276 14.1549 17.5136 14.877 18.133C14.9972 18.2511 15.1403 18.3433 15.2974 18.404C15.4546 18.4646 15.6225 18.4924 15.7908 18.4857C16.4769 18.4607 16.6658 17.708 16.6658 17.708C16.6658 17.708 19.8599 4.85918 19.9738 3.13711C19.9738 2.96768 19.996 2.85936 19.9988 2.74548C20.0042 2.61101 19.9912 2.47642 19.9599 2.34552Z" fill="white"/>
</svg>
