<svg width="20" height="20" viewBox="0 0 20 20" fill="none" xmlns="http://www.w3.org/2000/svg">
<path fill-rule="evenodd" clip-rule="evenodd" d="M17.0178 2.9058C16.0992 1.98151 15.0063 1.24873 13.8025 0.749939C12.5986 0.251145 11.3077 -0.00374568 10.0046 4.15927e-05C7.37691 0.00310282 4.85765 1.04799 2.99915 2.90562C1.14065 4.76325 0.0945872 7.28203 0.0902983 9.90972C0.0860812 11.6489 0.539643 13.3585 1.40541 14.8669L0 20L5.25584 18.6108C6.70925 19.4025 8.33796 19.8173 9.99303 19.8171C12.6207 19.814 15.14 18.7691 16.9985 16.9115C18.857 15.0539 19.9031 12.5351 19.9073 9.90741C19.911 8.6075 19.6575 7.31971 19.1616 6.1181C18.6657 4.9165 17.9371 3.8248 17.0178 2.9058ZM9.99766 18.1547C8.52052 18.1532 7.07112 17.7533 5.80226 16.997L5.50126 16.8187L2.38018 17.6453L3.2137 14.6076L3.0169 14.295C2.19221 12.9811 1.75558 11.461 1.75735 9.90972C1.7598 7.72461 2.62908 5.62972 4.17441 4.08483C5.71974 2.53994 7.81486 1.67125 9.99998 1.66941C11.0828 1.66667 12.1554 1.8787 13.1557 2.29321C14.156 2.70773 15.0642 3.3165 15.8277 4.08431C16.5945 4.84835 17.2023 5.75674 17.616 6.75701C18.0297 7.75728 18.2411 8.8296 18.238 9.91204C18.2361 12.0972 17.3675 14.1923 15.8226 15.7376C14.2777 17.2829 12.1828 18.1522 9.99766 18.1547ZM14.5172 11.9866C14.2695 11.8616 13.0516 11.2619 12.8247 11.1808C12.5978 11.0998 12.4334 11.0558 12.2667 11.3036C12.1 11.5513 11.6277 12.1093 11.4841 12.276C11.3406 12.4427 11.1947 12.4612 10.947 12.3362C10.2156 12.0463 9.54079 11.6302 8.95344 11.1068C8.40747 10.6073 7.93923 10.029 7.56423 9.39108C7.42068 9.14334 7.55034 9.00905 7.67306 8.88634C7.79577 8.76363 7.9208 8.59692 8.04583 8.45337C8.14711 8.3273 8.23048 8.18783 8.29357 8.03892C8.32568 7.97053 8.34057 7.89532 8.33694 7.81985C8.33331 7.74438 8.31126 7.67095 8.27273 7.60595C8.21022 7.48093 7.71473 6.26305 7.50867 5.76757C7.3026 5.27208 7.10348 5.34849 6.95067 5.34155C6.79786 5.3346 6.64041 5.34155 6.4876 5.34155C6.36219 5.3451 6.23885 5.37449 6.12532 5.42788C6.01178 5.48126 5.91047 5.55749 5.82772 5.6518C5.54728 5.91719 5.32523 6.23812 5.17573 6.59412C5.02624 6.95011 4.95259 7.33336 4.95947 7.71941C4.95947 8.93728 5.84856 10.1158 5.97128 10.2802C6.09399 10.4446 7.71936 12.9475 10.2037 14.0195C10.6648 14.2184 11.1363 14.3923 11.6161 14.5404C12.1214 14.6945 12.6558 14.7286 13.1766 14.64C13.6397 14.5682 14.6422 14.0403 14.8483 13.4615C15.0544 12.8826 15.0544 12.3871 14.9919 12.2853C14.9293 12.1834 14.765 12.1093 14.5172 11.9866Z" fill="white"/>
</svg>
