<svg width="761" height="90" viewBox="0 0 761 90" fill="none" xmlns="http://www.w3.org/2000/svg">
<path d="M701.007 3C713.749 3 724.344 4.80046 732.792 8.40139C741.241 12.0023 747.577 16.9536 751.801 23.2552C756.025 29.5569 758.137 36.7934 758.137 44.9647C758.137 49.3966 757.479 53.69 756.164 57.8449C754.848 61.9306 752.77 65.7739 749.931 69.3749C747.092 72.9065 743.422 76.0227 738.921 78.7234C734.42 81.3549 729.018 83.3977 722.717 84.8519C716.484 86.3754 709.248 87.1371 701.007 87.1371C695.121 87.1371 689.72 86.7216 684.803 85.8907C679.956 85.1289 675.558 84.0556 671.611 82.6706C667.664 81.2164 664.167 79.4852 661.12 77.4769C658.142 75.4687 655.545 73.2528 653.329 70.8291C651.183 68.3361 649.382 65.7047 647.928 62.9347C646.543 60.1648 645.504 57.2563 644.812 54.2094C644.189 51.1625 643.877 48.0809 643.877 44.9647C643.877 40.879 644.396 37.0011 645.435 33.3309C646.543 29.6607 648.136 26.2676 650.213 23.1514C652.36 20.0352 654.991 17.2652 658.108 14.8415C661.293 12.3486 664.998 10.2365 669.222 8.50527C673.446 6.7048 678.19 5.35446 683.453 4.45422C688.785 3.48474 694.636 3 701.007 3ZM701.111 36.0316C698.687 36.0316 696.61 36.3086 694.879 36.8626C693.217 37.3473 691.866 38.0398 690.828 38.9401C689.858 39.771 689.131 40.7405 688.646 41.8485C688.231 42.8872 688.023 43.9606 688.023 45.0686C688.023 46.5228 688.439 47.9424 689.269 49.3274C690.1 50.7123 691.485 51.8549 693.424 52.7552C695.363 53.6554 697.926 54.1055 701.111 54.1055C702.981 54.1055 704.608 53.9324 705.993 53.5862C707.447 53.2399 708.659 52.7898 709.629 52.2358C710.667 51.6126 711.498 50.9201 712.122 50.1583C712.814 49.3274 713.299 48.4964 713.576 47.6654C713.853 46.7652 713.991 45.8649 713.991 44.9647C713.991 43.926 713.749 42.8872 713.264 41.8485C712.849 40.8098 712.156 39.8749 711.187 39.0439C710.217 38.1437 708.901 37.4166 707.239 36.8626C705.578 36.3086 703.535 36.0316 701.111 36.0316Z" stroke="black" stroke-width="4.28844"/>
<path d="M594.426 84.0215C594.426 79.0356 594.426 74.0497 594.426 69.0638C594.426 64.0779 594.426 59.0919 594.426 54.106C594.426 49.1201 594.426 44.1342 594.426 39.1483C594.426 34.1624 594.426 29.1765 594.426 24.1906C594.426 21.1437 594.426 18.1313 594.426 15.1537C594.426 12.1067 594.426 9.0944 594.426 6.1167H637.533C637.533 12.8338 637.533 19.5509 637.533 26.2681C637.533 32.9159 637.533 39.5984 637.533 46.3156C637.533 50.4705 637.533 54.66 637.533 58.8842C637.533 63.0391 637.533 67.2287 637.533 71.4528C637.533 75.6078 637.533 79.7973 637.533 84.0215H594.426Z" stroke="black" stroke-width="4.28844"/>
<path d="M542.244 6.1167C548.754 6.1167 554.501 6.84381 559.487 8.29804C564.542 9.68301 568.87 11.622 572.471 14.1149C576.072 16.6079 579.015 19.5163 581.301 22.8403C583.586 26.0949 585.282 29.592 586.39 33.3314C587.498 37.0709 588.052 40.8795 588.052 44.7575C588.052 49.6741 587.152 54.4869 585.352 59.1958C583.62 63.8355 580.885 68.025 577.146 71.7645C573.475 75.5039 568.732 78.4816 562.915 80.6975C557.167 82.9135 550.277 84.0215 542.244 84.0215H480.336C480.336 79.5896 480.336 75.1923 480.336 70.8296C480.336 66.3977 480.336 62.0004 480.336 57.6377C480.336 53.2058 480.336 48.8085 480.336 44.4459C480.336 40.0139 480.336 35.582 480.336 31.1501C480.336 26.9952 480.336 22.8403 480.336 18.6853C480.336 14.4612 480.336 10.2716 480.336 6.1167H542.244ZM533.934 36.0321H521.574C521.574 36.0321 521.539 36.0321 521.47 36.0321C521.47 36.0321 521.47 36.0668 521.47 36.136C521.47 36.136 521.47 36.1706 521.47 36.2399V53.8983C521.47 53.9675 521.47 54.0368 521.47 54.106C521.539 54.106 521.574 54.106 521.574 54.106H534.142C535.666 54.106 537.016 53.8637 538.193 53.3789C539.44 52.8942 540.478 52.2363 541.309 51.4053C542.14 50.5744 542.764 49.6049 543.179 48.4969C543.664 47.3889 543.906 46.2463 543.906 45.0691C543.906 43.4071 543.491 41.8836 542.66 40.4987C541.898 39.1137 540.79 38.0403 539.336 37.2786C537.882 36.4476 536.081 36.0321 533.934 36.0321Z" stroke="black" stroke-width="4.28844"/>
<path d="M371.219 6.1167H414.326C414.326 13.6648 414.326 20.7282 414.326 27.3068C414.326 33.8854 414.326 40.464 414.326 47.0427C414.326 48.0814 414.534 48.9816 414.949 49.7434C415.434 50.5051 416.023 51.163 416.715 51.717C417.477 52.2017 418.308 52.5826 419.208 52.8596C420.178 53.1366 421.147 53.2751 422.117 53.2751C424.125 53.2751 425.925 52.7557 427.518 51.717C429.111 50.6782 429.907 49.1548 429.907 47.1465C429.907 43.8226 429.907 40.5333 429.907 37.2786C429.907 34.0239 429.907 30.7346 429.907 27.4107C429.907 24.0867 429.907 20.6589 429.907 17.1272C429.907 13.5956 429.907 9.92538 429.907 6.1167H473.014C473.014 11.3796 473.014 16.781 473.014 22.3209C473.014 27.8608 473.014 33.4353 473.014 39.0444C473.014 44.5843 473.014 49.9857 473.014 55.2486C473.014 60.5808 471.56 65.2551 468.652 69.2715C465.812 73.2187 461.969 76.5426 457.122 79.2433C452.274 81.8748 446.804 83.8483 440.71 85.1641C434.685 86.4798 428.487 87.1377 422.117 87.1377C417.061 87.1377 412.041 86.7222 407.055 85.8912C402.138 85.0602 397.499 83.7791 393.136 82.0479C388.843 80.3167 385.034 78.2046 381.71 75.7116C378.455 73.1494 375.893 70.1717 374.023 66.7785C372.154 63.3161 371.219 59.4728 371.219 55.2486C371.219 52.6172 371.219 49.9165 371.219 47.1465C371.219 44.3073 371.219 41.5028 371.219 38.7328C371.219 35.0626 371.219 31.3925 371.219 27.7223C371.219 24.0521 371.219 20.4166 371.219 16.8156C371.219 13.1454 371.219 9.57913 371.219 6.1167Z" stroke="black" stroke-width="4.28844"/>
<path d="M363.523 6.1167V37.6941H338.49C338.49 37.6941 338.455 37.7287 338.386 37.798C338.386 37.798 338.351 37.798 338.282 37.798C338.282 37.798 338.282 37.8326 338.282 37.9018C338.282 40.9488 338.282 44.0304 338.282 47.1465C338.282 50.1935 338.282 53.2751 338.282 56.3912C338.282 59.4382 338.282 62.5198 338.282 65.6359C338.282 68.6829 338.282 71.7645 338.282 74.8806C338.282 77.9276 338.282 80.9745 338.282 84.0215H295.175C295.175 78.8971 295.175 73.7727 295.175 68.6483C295.175 63.5239 295.175 58.3995 295.175 53.2751C295.175 48.1507 295.175 43.0262 295.175 37.9018C295.175 37.8326 295.14 37.798 295.071 37.798C295.071 37.7287 295.036 37.6941 294.967 37.6941H269.934V6.1167H363.523Z" stroke="black" stroke-width="4.28844"/>
<path d="M210.637 37.0703C221.024 37.0703 229.715 37.5205 236.709 38.4207C243.703 39.3209 249.277 40.7405 253.432 42.6795C257.587 44.5492 260.565 46.9729 262.365 49.9506C264.166 52.859 265.066 56.3215 265.066 60.3379C265.066 64.7006 263.647 68.5785 260.807 71.9717C258.037 75.2956 254.125 78.1002 249.07 80.3854C244.084 82.6013 238.267 84.2633 231.619 85.3713C225.04 86.5485 217.942 87.1371 210.325 87.1371C201.877 87.1371 194.19 86.5139 187.265 85.2674C180.34 84.0209 174.454 82.1166 169.607 79.5544C164.759 76.923 161.124 73.5644 158.7 69.4787C156.346 65.3931 155.411 60.511 155.896 54.8326L200.249 51.8203C199.695 53.8978 199.834 55.629 200.665 57.014C201.565 58.3989 202.95 59.4377 204.82 60.1302C206.69 60.8226 208.767 61.1689 211.052 61.1689C212.437 61.1689 213.684 61.065 214.792 60.8573C215.969 60.6495 217.008 60.3379 217.908 59.9224C218.808 59.5069 219.501 58.9875 219.985 58.3643C220.47 57.6718 220.712 56.9101 220.712 56.0791C220.712 54.4171 219.847 53.3438 218.116 52.859C216.454 52.3743 213.995 52.1319 210.741 52.1319C210.602 52.1319 210.429 52.1319 210.221 52.1319C210.083 52.1319 209.91 52.1319 209.702 52.1319C209.563 52.1319 209.39 52.1319 209.182 52.1319C208.975 52.1319 208.767 52.1319 208.559 52.1319C208.421 52.1319 208.282 52.1319 208.144 52.1319C197.895 52.1319 189.377 51.6126 182.591 50.5738C175.805 49.4659 170.438 47.9424 166.491 46.0034C162.543 44.0645 159.739 41.7793 158.077 39.1478C156.415 36.4471 155.584 33.4348 155.584 30.1109C155.584 26.5792 156.519 23.3937 158.389 20.5545C160.258 17.6461 162.89 15.1185 166.283 12.9718C169.745 10.7559 173.762 8.92076 178.332 7.46654C182.972 6.01232 188.027 4.90434 193.498 4.1426C199.038 3.38087 204.82 3 210.844 3C219.362 3 226.979 3.76174 233.696 5.28521C240.483 6.80868 246.161 8.99001 250.732 11.8292C255.371 14.6684 258.695 18.0616 260.703 22.0088C262.712 25.9559 263.196 30.3878 262.158 35.3045L219.258 37.2781C220.02 35.2699 219.985 33.6425 219.154 32.3961C218.323 31.0803 217.008 30.1455 215.207 29.5915C213.476 28.9683 211.502 28.6566 209.286 28.6566C207.901 28.6566 206.655 28.7951 205.547 29.0721C204.439 29.2799 203.469 29.6261 202.638 30.1109C201.877 30.5263 201.253 31.0457 200.769 31.669C200.353 32.2922 200.146 32.95 200.146 33.6425C200.146 34.4735 200.422 35.166 200.976 35.72C201.53 36.2047 202.361 36.551 203.469 36.7587C204.647 36.9665 206.17 37.0703 208.04 37.0703C208.178 37.0703 208.317 37.0703 208.455 37.0703C208.663 37.0703 208.836 37.0703 208.975 37.0703C209.182 37.0703 209.356 37.0703 209.494 37.0703C209.702 37.0703 209.875 37.0703 210.013 37.0703C210.221 37.0703 210.429 37.0703 210.637 37.0703Z" stroke="black" stroke-width="4.28844"/>
<path d="M111.102 84.0208V54.8325H149.015V84.0208H111.102Z" stroke="black" stroke-width="4.28844"/>
<path d="M60.6495 6.1167H103.757C103.757 10.4794 103.757 14.842 103.757 19.2047C103.757 23.5674 103.757 27.93 103.757 32.2927C103.757 36.6554 103.757 41.0527 103.757 45.4846C103.757 51.8555 103.757 58.261 103.757 64.7011C103.757 71.1412 103.757 77.5813 103.757 84.0215H60.6495C60.6495 79.7973 60.6495 75.5731 60.6495 71.349C60.6495 67.1248 60.6495 62.9006 60.6495 58.6765C60.6495 58.6072 60.6149 58.5726 60.5456 58.5726C60.5456 58.5033 60.511 58.4687 60.4418 58.4687H46.2112C46.1419 58.4687 46.1073 58.5033 46.1073 58.5726C46.1073 58.5726 46.1073 58.6072 46.1073 58.6765C46.1073 62.9006 46.1073 67.1248 46.1073 71.349C46.1073 75.5731 46.1073 79.7973 46.1073 84.0215H3C3 79.8666 3 75.7116 3 71.5567C3 67.4018 3 63.2469 3 59.0919C3 54.937 3 50.7821 3 46.6272C3 42.4723 3 38.3173 3 34.1624C3 30.0075 3 25.8526 3 21.6977C3 19.0662 3 16.4694 3 13.9072C3 11.2757 3 8.6789 3 6.1167H46.1073C46.1073 9.44064 46.1073 12.7992 46.1073 16.1924C46.1073 19.5856 46.1073 22.9788 46.1073 26.3719C46.1073 29.6959 46.1073 33.0544 46.1073 36.4476C46.1073 36.5169 46.1073 36.5861 46.1073 36.6554C46.1073 36.6554 46.1419 36.6554 46.2112 36.6554H60.4418C60.511 36.6554 60.5456 36.6554 60.5456 36.6554C60.6149 36.5861 60.6495 36.5169 60.6495 36.4476C60.6495 31.3925 60.6495 26.3373 60.6495 21.2822C60.6495 16.227 60.6495 11.1719 60.6495 6.1167Z" stroke="black" stroke-width="4.28844"/>
</svg>
