<svg width="731" height="85" viewBox="0 0 731 85" fill="none" xmlns="http://www.w3.org/2000/svg">
<path d="M673.347 0C686.089 0 696.684 1.80046 705.132 5.40139C713.58 9.00233 719.917 13.9536 724.141 20.2552C728.365 26.5569 730.477 33.7934 730.477 41.9647C730.477 46.3966 729.819 50.69 728.504 54.8449C727.188 58.9306 725.11 62.7739 722.271 66.3749C719.432 69.9065 715.762 73.0227 711.261 75.7234C706.759 78.3549 701.358 80.3977 695.056 81.8519C688.824 83.3754 681.588 84.1371 673.347 84.1371C667.461 84.1371 662.059 83.7216 657.143 82.8907C652.295 82.1289 647.898 81.0556 643.951 79.6706C640.004 78.2164 636.507 76.4852 633.46 74.4769C630.482 72.4687 627.885 70.2528 625.669 67.8291C623.523 65.3361 621.722 62.7047 620.268 59.9347C618.883 57.1648 617.844 54.2563 617.152 51.2094C616.528 48.1625 616.217 45.0809 616.217 41.9647C616.217 37.879 616.736 34.0011 617.775 30.3309C618.883 26.6607 620.476 23.2676 622.553 20.1514C624.7 17.0352 627.331 14.2652 630.447 11.8415C633.633 9.34857 637.338 7.23649 641.562 5.50527C645.786 3.7048 650.53 2.35446 655.792 1.45422C661.125 0.484741 666.976 0 673.347 0ZM673.451 33.0316C671.027 33.0316 668.95 33.3086 667.218 33.8626C665.557 34.3473 664.206 35.0398 663.167 35.9401C662.198 36.771 661.471 37.7405 660.986 38.8485C660.571 39.8872 660.363 40.9606 660.363 42.0686C660.363 43.5228 660.778 44.9424 661.609 46.3274C662.44 47.7123 663.825 48.8549 665.764 49.7552C667.703 50.6554 670.265 51.1055 673.451 51.1055C675.321 51.1055 676.948 50.9324 678.333 50.5862C679.787 50.2399 680.999 49.7898 681.968 49.2358C683.007 48.6126 683.838 47.9201 684.461 47.1583C685.154 46.3274 685.639 45.4964 685.916 44.6654C686.193 43.7652 686.331 42.8649 686.331 41.9647C686.331 40.926 686.089 39.8872 685.604 38.8485C685.188 37.8098 684.496 36.8749 683.527 36.0439C682.557 35.1437 681.241 34.4166 679.579 33.8626C677.917 33.3086 675.875 33.0316 673.451 33.0316Z" fill="black"/>
<path d="M569.982 81.0215C569.982 76.0356 569.982 71.0497 569.982 66.0638C569.982 61.0779 569.982 56.0919 569.982 51.106C569.982 46.1201 569.982 41.1342 569.982 36.1483C569.982 31.1624 569.982 26.1765 569.982 21.1906C569.982 18.1437 569.982 15.1313 569.982 12.1537C569.982 9.10671 569.982 6.0944 569.982 3.1167H613.09C613.09 9.83382 613.09 16.5509 613.09 23.2681C613.09 29.9159 613.09 36.5984 613.09 43.3156C613.09 47.4705 613.09 51.66 613.09 55.8842C613.09 60.0391 613.09 64.2287 613.09 68.4528C613.09 72.6078 613.09 76.7973 613.09 81.0215H569.982Z" fill="black"/>
<path d="M521.018 3.1167C527.527 3.1167 533.275 3.84381 538.261 5.29804C543.316 6.68301 547.644 8.62197 551.245 11.1149C554.846 13.6079 557.789 16.5163 560.074 19.8403C562.359 23.0949 564.056 26.592 565.164 30.3314C566.272 34.0709 566.826 37.8795 566.826 41.7575C566.826 46.6741 565.925 51.4869 564.125 56.1958C562.394 60.8355 559.658 65.025 555.919 68.7645C552.249 72.5039 547.505 75.4816 541.688 77.6975C535.941 79.9135 529.051 81.0215 521.018 81.0215H459.109C459.109 76.5896 459.109 72.1923 459.109 67.8296C459.109 63.3977 459.109 59.0004 459.109 54.6377C459.109 50.2058 459.109 45.8085 459.109 41.4459C459.109 37.0139 459.109 32.582 459.109 28.1501C459.109 23.9952 459.109 19.8403 459.109 15.6853C459.109 11.4612 459.109 7.27162 459.109 3.1167H521.018ZM512.708 33.0321H500.347C500.347 33.0321 500.312 33.0321 500.243 33.0321C500.243 33.0321 500.243 33.0668 500.243 33.136C500.243 33.136 500.243 33.1706 500.243 33.2399V50.8983C500.243 50.9675 500.243 51.0368 500.243 51.106C500.312 51.106 500.347 51.106 500.347 51.106H512.916C514.439 51.106 515.789 50.8637 516.967 50.3789C518.213 49.8942 519.252 49.2363 520.083 48.4053C520.914 47.5744 521.537 46.6049 521.953 45.4969C522.437 44.3889 522.68 43.2463 522.68 42.0691C522.68 40.4071 522.264 38.8836 521.433 37.4987C520.671 36.1137 519.563 35.0403 518.109 34.2786C516.655 33.4476 514.855 33.0321 512.708 33.0321Z" fill="black"/>
<path d="M353.211 3.1167H396.318C396.318 10.6648 396.318 17.7282 396.318 24.3068C396.318 30.8854 396.318 37.464 396.318 44.0427C396.318 45.0814 396.526 45.9816 396.941 46.7434C397.426 47.5051 398.015 48.163 398.707 48.717C399.469 49.2017 400.3 49.5826 401.2 49.8596C402.17 50.1366 403.139 50.2751 404.109 50.2751C406.117 50.2751 407.917 49.7557 409.51 48.717C411.103 47.6782 411.899 46.1548 411.899 44.1465C411.899 40.8226 411.899 37.5333 411.899 34.2786C411.899 31.0239 411.899 27.7346 411.899 24.4107C411.899 21.0867 411.899 17.6589 411.899 14.1272C411.899 10.5956 411.899 6.92538 411.899 3.1167H455.006C455.006 8.3796 455.006 13.781 455.006 19.3209C455.006 24.8608 455.006 30.4353 455.006 36.0444C455.006 41.5843 455.006 46.9857 455.006 52.2486C455.006 57.5808 453.552 62.2551 450.644 66.2715C447.805 70.2187 443.961 73.5426 439.114 76.2433C434.267 78.8748 428.796 80.8483 422.702 82.1641C416.677 83.4798 410.48 84.1377 404.109 84.1377C399.054 84.1377 394.033 83.7222 389.047 82.8912C384.13 82.0602 379.491 80.7791 375.128 79.0479C370.835 77.3167 367.026 75.2046 363.702 72.7116C360.447 70.1494 357.885 67.1717 356.016 63.7785C354.146 60.3161 353.211 56.4728 353.211 52.2486C353.211 49.6172 353.211 46.9165 353.211 44.1465C353.211 41.3073 353.211 38.5028 353.211 35.7328C353.211 32.0626 353.211 28.3925 353.211 24.7223C353.211 21.0521 353.211 17.4166 353.211 13.8156C353.211 10.1454 353.211 6.57913 353.211 3.1167Z" fill="black"/>
<path d="M349.802 3.1167V34.6941H324.769C324.769 34.6941 324.734 34.7287 324.665 34.798C324.665 34.798 324.631 34.798 324.561 34.798C324.561 34.798 324.561 34.8326 324.561 34.9018C324.561 37.9488 324.561 41.0304 324.561 44.1465C324.561 47.1935 324.561 50.2751 324.561 53.3913C324.561 56.4382 324.561 59.5198 324.561 62.6359C324.561 65.6829 324.561 68.7645 324.561 71.8806C324.561 74.9276 324.561 77.9745 324.561 81.0215H281.454C281.454 75.8971 281.454 70.7727 281.454 65.6483C281.454 60.5239 281.454 55.3995 281.454 50.2751C281.454 45.1507 281.454 40.0262 281.454 34.9018C281.454 34.8326 281.419 34.798 281.35 34.798C281.35 34.7287 281.316 34.6941 281.246 34.6941H256.213V3.1167H349.802Z" fill="black"/>
<path d="M201.205 34.0703C211.592 34.0703 220.283 34.5205 227.277 35.4207C234.271 36.3209 239.846 37.7405 244.001 39.6795C248.156 41.5492 251.133 43.9729 252.934 46.9506C254.734 49.859 255.635 53.3215 255.635 57.3379C255.635 61.7006 254.215 65.5785 251.376 68.9717C248.606 72.2956 244.693 75.1002 239.638 77.3854C234.652 79.6013 228.835 81.2633 222.187 82.3713C215.609 83.5485 208.511 84.1371 200.893 84.1371C192.445 84.1371 184.758 83.5139 177.834 82.2674C170.909 81.0209 165.023 79.1166 160.175 76.5544C155.328 73.923 151.692 70.5644 149.269 66.4787C146.914 62.3931 145.979 57.511 146.464 51.8326L190.818 48.8203C190.264 50.8978 190.402 52.629 191.233 54.014C192.133 55.3989 193.518 56.4377 195.388 57.1302C197.258 57.8226 199.335 58.1689 201.621 58.1689C203.005 58.1689 204.252 58.065 205.36 57.8573C206.537 57.6495 207.576 57.3379 208.476 56.9224C209.376 56.5069 210.069 55.9875 210.554 55.3643C211.038 54.6718 211.281 53.9101 211.281 53.0791C211.281 51.4171 210.415 50.3438 208.684 49.859C207.022 49.3743 204.564 49.1319 201.309 49.1319C201.17 49.1319 200.997 49.1319 200.79 49.1319C200.651 49.1319 200.478 49.1319 200.27 49.1319C200.132 49.1319 199.959 49.1319 199.751 49.1319C199.543 49.1319 199.335 49.1319 199.128 49.1319C198.989 49.1319 198.851 49.1319 198.712 49.1319C188.463 49.1319 179.946 48.6126 173.159 47.5738C166.373 46.4659 161.006 44.9424 157.059 43.0034C153.112 41.0645 150.307 38.7793 148.645 36.1478C146.983 33.4471 146.152 30.4348 146.152 27.1109C146.152 23.5792 147.087 20.3937 148.957 17.5545C150.827 14.6461 153.458 12.1185 156.851 9.97181C160.314 7.75585 164.33 5.92076 168.901 4.46654C173.54 3.01232 178.595 1.90434 184.066 1.1426C189.606 0.380867 195.388 0 201.413 0C209.93 0 217.548 0.761736 224.265 2.28521C231.051 3.80868 236.73 5.99001 241.3 8.8292C245.94 11.6684 249.264 15.0616 251.272 19.0088C253.28 22.9559 253.765 27.3878 252.726 32.3045L209.826 34.2781C210.588 32.2699 210.554 30.6425 209.723 29.3961C208.892 28.0803 207.576 27.1455 205.775 26.5915C204.044 25.9683 202.071 25.6566 199.855 25.6566C198.47 25.6566 197.223 25.7951 196.115 26.0721C195.007 26.2799 194.038 26.6261 193.207 27.1109C192.445 27.5263 191.822 28.0457 191.337 28.669C190.922 29.2922 190.714 29.95 190.714 30.6425C190.714 31.4735 190.991 32.166 191.545 32.72C192.099 33.2047 192.93 33.551 194.038 33.7587C195.215 33.9665 196.738 34.0703 198.608 34.0703C198.747 34.0703 198.885 34.0703 199.024 34.0703C199.231 34.0703 199.405 34.0703 199.543 34.0703C199.751 34.0703 199.924 34.0703 200.062 34.0703C200.27 34.0703 200.443 34.0703 200.582 34.0703C200.79 34.0703 200.997 34.0703 201.205 34.0703Z" fill="black"/>
<path d="M104.889 81.0208V51.8325H142.802V81.0208H104.889Z" fill="black"/>
<path d="M57.6495 3.1167H100.757C100.757 7.47937 100.757 11.842 100.757 16.2047C100.757 20.5674 100.757 24.93 100.757 29.2927C100.757 33.6554 100.757 38.0527 100.757 42.4846C100.757 48.8555 100.757 55.261 100.757 61.7011C100.757 68.1412 100.757 74.5813 100.757 81.0215H57.6495C57.6495 76.7973 57.6495 72.5731 57.6495 68.349C57.6495 64.1248 57.6495 59.9006 57.6495 55.6765C57.6495 55.6072 57.6149 55.5726 57.5457 55.5726C57.5457 55.5033 57.511 55.4687 57.4418 55.4687H43.2112C43.1419 55.4687 43.1073 55.5033 43.1073 55.5726C43.1073 55.5726 43.1073 55.6072 43.1073 55.6765C43.1073 59.9006 43.1073 64.1248 43.1073 68.349C43.1073 72.5731 43.1073 76.7973 43.1073 81.0215H0C0 76.8666 0 72.7116 0 68.5567C0 64.4018 0 60.2469 0 56.0919C0 51.937 0 47.7821 0 43.6272C0 39.4723 0 35.3173 0 31.1624C0 27.0075 0 22.8526 0 18.6977C0 16.0662 0 13.4694 0 10.9072C0 8.27573 0 5.6789 0 3.1167H43.1073C43.1073 6.44064 43.1073 9.7992 43.1073 13.1924C43.1073 16.5856 43.1073 19.9788 43.1073 23.3719C43.1073 26.6959 43.1073 30.0544 43.1073 33.4476C43.1073 33.5169 43.1073 33.5861 43.1073 33.6554C43.1073 33.6554 43.1419 33.6554 43.2112 33.6554H57.4418C57.511 33.6554 57.5457 33.6554 57.5457 33.6554C57.6149 33.5861 57.6495 33.5169 57.6495 33.4476C57.6495 28.3925 57.6495 23.3373 57.6495 18.2822C57.6495 13.227 57.6495 8.17185 57.6495 3.1167Z" fill="black"/>
</svg>
